<svg xmlns="http://www.w3.org/2000/svg" width="600" height="510" viewBox="0 0 600 510" role="img" aria-labelledby="title desc">
<title id="title">AI-assisted development workflow</title><desc id="desc">Requirements, modules, implementation, integration and validation.</desc>
<defs><linearGradient id="signal"><stop stop-color="#60a5fa"/><stop offset="1" stop-color="#a78bfa"/></linearGradient>
<pattern id="grid" width="28" height="28" patternUnits="userSpaceOnUse"><path d="M28 0H0V28" fill="none" stroke="#29364c" stroke-width="0.6"/></pattern></defs>
<style>text{font-family:Inter,Segoe UI,Arial,sans-serif} .mono{font-family:Consolas,monospace} @media(prefers-reduced-motion:reduce){.moving{display:none}}</style>
<rect x="1" y="1" width="598" height="508" rx="20" fill="#0d1117" stroke="#29364c"/>
<text x="28" y="43" font-size="20" fill="#9aaec9" font-weight="600" >AI-ASSISTED DEVELOPMENT</text><rect x="28" y="67" width="544" height="71" rx="11" fill="#141c2b" stroke="#29364c"/><text x="43" y="109" font-size="18" fill="#a78bfa" font-weight="600" class="mono">01</text><text x="92" y="95" font-size="23" fill="#eef3fb" font-weight="600" >Requirements</text><text x="92" y="121" font-size="18" fill="#9aaec9" font-weight="400" >Goal and constraints</text><path d="M60 138V154" stroke="#60a5fa" stroke-width="2"/><rect x="28" y="154" width="544" height="71" rx="11" fill="#141c2b" stroke="#29364c"/><text x="43" y="196" font-size="18" fill="#a78bfa" font-weight="600" class="mono">02</text><text x="92" y="182" font-size="23" fill="#eef3fb" font-weight="600" >Modules</text><text x="92" y="208" font-size="18" fill="#9aaec9" font-weight="400" >Responsibilities and interfaces</text><path d="M60 225V241" stroke="#60a5fa" stroke-width="2"/><rect x="28" y="241" width="544" height="71" rx="11" fill="#141c2b" stroke="#29364c"/><text x="43" y="283" font-size="18" fill="#a78bfa" font-weight="600" class="mono">03</text><text x="92" y="269" font-size="23" fill="#eef3fb" font-weight="600" >Implementation</text><text x="92" y="295" font-size="18" fill="#9aaec9" font-weight="400" >AI-assisted code and debugging</text><path d="M60 312V328" stroke="#60a5fa" stroke-width="2"/><rect x="28" y="328" width="544" height="71" rx="11" fill="#141c2b" stroke="#29364c"/><text x="43" y="370" font-size="18" fill="#a78bfa" font-weight="600" class="mono">04</text><text x="92" y="356" font-size="23" fill="#eef3fb" font-weight="600" >Integration</text><text x="92" y="382" font-size="18" fill="#9aaec9" font-weight="400" >APIs and data flow</text><path d="M60 399V415" stroke="#60a5fa" stroke-width="2"/><rect x="28" y="415" width="544" height="71" rx="11" fill="#141c2b" stroke="#29364c"/><text x="43" y="457" font-size="18" fill="#a78bfa" font-weight="600" class="mono">05</text><text x="92" y="443" font-size="23" fill="#eef3fb" font-weight="600" >Validation</text><text x="92" y="469" font-size="18" fill="#9aaec9" font-weight="400" >Behaviour, tests and iteration</text></svg>