<svg xmlns="http://www.w3.org/2000/svg" width="600" height="300" viewBox="0 0 600 300" role="img" aria-labelledby="title desc">
<title id="title">JobManager</title><desc id="desc">Job listing analysis. Original functional illustration; not an application screenshot.</desc>
<defs><linearGradient id="signal"><stop stop-color="#60a5fa"/><stop offset="1" stop-color="#a78bfa"/></linearGradient>
<pattern id="grid" width="28" height="28" patternUnits="userSpaceOnUse"><path d="M28 0H0V28" fill="none" stroke="#29364c" stroke-width="0.6"/></pattern></defs>
<style>text{font-family:Inter,Segoe UI,Arial,sans-serif} .mono{font-family:Consolas,monospace} @media(prefers-reduced-motion:reduce){.moving{display:none}}</style>
<rect x="1" y="1" width="598" height="298" rx="20" fill="#0d1117" stroke="#29364c"/>
<rect x="305" y="2" width="293" height="296" rx="18" fill="url(#grid)" opacity="0.6"/><text x="28" y="42" font-size="11" fill="#9aaec9" font-weight="600" letter-spacing="1.4">03 / PERSONAL AUTOMATION</text><text x="28" y="94" font-size="38" fill="#eef3fb" font-weight="700" >JobManager</text><text x="28" y="124" font-size="17" fill="#9aaec9" font-weight="400" >Job listing analysis</text><rect x="28" y="145" width="52" height="3" fill="url(#signal)" rx="1.5"/><text x="28" y="208" font-size="14" fill="#60a5fa" font-weight="600" class="mono">SOURCES</text><text x="28" y="234" font-size="14" fill="#9aaec9" font-weight="500" class="mono">FILTERS</text><text x="28" y="260" font-size="14" fill="#9aaec9" font-weight="500" class="mono">RESEARCH</text><rect x="313" y="156" width="242" height="31" rx="6" fill="#141c2b" stroke="#29364c"/><circle cx="329" cy="171" r="4" fill="#a78bfa"/><path d="M342 167H537M342 176H507" stroke="#9aaec9" stroke-width="2"/><rect x="313" y="196" width="206" height="31" rx="6" fill="#141c2b" stroke="#29364c"/><circle cx="329" cy="211" r="4" fill="#a78bfa"/><path d="M342 207H501M342 216H471" stroke="#9aaec9" stroke-width="2"/><rect x="313" y="236" width="223" height="31" rx="6" fill="#141c2b" stroke="#29364c"/><circle cx="329" cy="251" r="4" fill="#a78bfa"/><path d="M342 247H518M342 256H488" stroke="#9aaec9" stroke-width="2"/></svg>