<svg xmlns="http://www.w3.org/2000/svg" width="600" height="320" viewBox="0 0 600 320" role="img" aria-labelledby="title desc">
<title id="title">Yapper</title><desc id="desc">Speech to text for Windows. Original voice illustration.</desc>
<style>text{font-family:Segoe UI,Arial,sans-serif}</style>
<rect width="600" height="320" rx="12" fill="#172237"/><text x="30" y="61" font-size="44" fill="#f4f6fb" font-weight="600" letter-spacing="-1.5">Yapper</text><text x="32" y="93" font-size="19" fill="#aab4c4" font-weight="400" >Speech to text for Windows</text><path d="M32 116H568" stroke="#83abff" stroke-opacity="0.26"/><rect x="34" y="215.0" width="4" height="6" rx="2" fill="#83abff"/><rect x="44" y="214.0" width="4" height="8" rx="2" fill="#83abff"/><rect x="54" y="215.5" width="4" height="5" rx="2" fill="#83abff"/><rect x="64" y="212.5" width="4" height="11" rx="2" fill="#83abff"/><rect x="74" y="209.0" width="4" height="18" rx="2" fill="#83abff"/><rect x="84" y="202.5" width="4" height="31" rx="2" fill="#83abff"/><rect x="94" y="195.0" width="4" height="46" rx="2" fill="#83abff"/><rect x="104" y="201.0" width="4" height="34" rx="2" fill="#83abff"/><rect x="114" y="189.0" width="4" height="58" rx="2" fill="#83abff"/><rect x="124" y="180.0" width="4" height="76" rx="2" fill="#83abff"/><rect x="134" y="187.5" width="4" height="61" rx="2" fill="#83abff"/><rect x="144" y="200.5" width="4" height="35" rx="2" fill="#83abff"/><rect x="154" y="208.0" width="4" height="20" rx="2" fill="#83abff"/><rect x="164" y="203.5" width="4" height="29" rx="2" fill="#83abff"/><rect x="174" y="194.5" width="4" height="47" rx="2" fill="#83abff"/><rect x="184" y="185.5" width="4" height="65" rx="2" fill="#83abff"/><rect x="194" y="193.5" width="4" height="49" rx="2" fill="#83abff"/><rect x="204" y="205.0" width="4" height="26" rx="2" fill="#83abff"/><rect x="214" y="211.5" width="4" height="13" rx="2" fill="#83abff"/><rect x="224" y="214.0" width="4" height="8" rx="2" fill="#83abff"/><rect x="234" y="215.0" width="4" height="6" rx="2" fill="#83abff"/><rect x="244" y="212.0" width="4" height="12" rx="2" fill="#83abff"/><rect x="254" y="206.0" width="4" height="24" rx="2" fill="#83abff"/><rect x="264" y="198.5" width="4" height="39" rx="2" fill="#83abff"/><rect x="274" y="191.5" width="4" height="53" rx="2" fill="#83abff"/><rect x="284" y="202.0" width="4" height="32" rx="2" fill="#83abff"/><rect x="294" y="209.0" width="4" height="18" rx="2" fill="#83abff"/><rect x="304" y="214.0" width="4" height="8" rx="2" fill="#83abff"/><path d="M333 218H365M357 210L365 218L357 226" fill="none" stroke="#aab4c4" stroke-width="1.5"/><text x="387" y="235" font-size="48" fill="#f4f6fb" font-weight="600" letter-spacing="-1">Text</text><path d="M493 200V241" stroke="#83abff" stroke-width="2"/><text x="32" y="288" font-size="16" fill="#aab4c4" font-weight="400" >Two push-to-talk channels</text></svg>